# xmcd
#
# Track frame offsets:
#	150
#	16530
#	33873
#	48961
#	62506
#	77390
#	90800
#	107988
#	126039
#	141763
#	159769
#	177276
#	194778
#	212863
#	229482
#	246138
#
# Disc length: 3498 seconds
#
# Revision: 0
# Processed by: cddbd v1.5.2PL0 Copyright (c) Steve Scherf et al.
# Submitted via: dBpowerAMP V4.0
#
DISCID=c50da810
DTITLE=Various Artist - CDX 450
DYEAR=2008
DGENRE=Country
TTITLE0=01 Sugarland - All I Want To Do
TTITLE1=02 Carolina Rain - American Radio
TTITLE2=03 Kellie Pickler - Don't You Know Your Beautiful (single Edit)
TTITLE3=04 George Strait - Troubadour
TTITLE4=05 Heartland - Slowdown
TTITLE5=06 Pat Roper - Somethin' About That
TTITLE6=07 Donna Fargo - In America
TTITLE7=08 Del McCoury Band - Moneyland
TTITLE8=09 Joey Scarbury - How Do You Sleep At Night
TTITLE9=10 Rissi Palmer - No Air
TTITLE10=11 Monty Lane Allen - Back In The Highlife Again
TTITLE11=12 Ryan Capron - Farm Girl
TTITLE12=13 Paula Hernandez - One Woman
TTITLE13=14 Darren Kozelsky - She Got Me There
TTITLE14=15 Patti Miner - For A Million Years
TTITLE15=16 Megan Morrison - More Time Leavin'
EXTD=
EXTT0=
EXTT1=
EXTT2=
EXTT3=
EXTT4=
EXTT5=
EXTT6=
EXTT7=
EXTT8=
EXTT9=
EXTT10=
EXTT11=
EXTT12=
EXTT13=
EXTT14=
EXTT15=
PLAYORDER=
